HIERARCHY
ROOT Hips
{
	OFFSET 0.000000 0.000000 0.000000 
	CHANNELS 6 Xposition Yposition Zposition Zrotation Yrotation Xrotation
	JOINT LeftUpLeg
	{
		OFFSET 1.363060 -1.794630 0.839290 
		CHANNELS 3 Zrotation Yrotation Xrotation
		JOINT LeftLeg
		{
			OFFSET 2.448110 -6.726130 0.000000 
			CHANNELS 3 Zrotation Yrotation Xrotation
			JOINT LeftFoot
			{
				OFFSET 2.562200 -7.039590 0.000000 
				CHANNELS 3 Zrotation Yrotation Xrotation
				JOINT LeftToeBase
				{
					OFFSET 0.157640 -0.433110 2.322550 
					CHANNELS 3 Zrotation Yrotation Xrotation
					End Site
					{
						OFFSET 0.000000 0.000000 0.000000 
					}
				}
			}
		}
	}
	JOINT RightUpLeg
	{
		OFFSET -1.305520 -1.794630 0.839290 
		CHANNELS 3 Zrotation Yrotation Xrotation
		JOINT RightLeg
		{
			OFFSET -2.542530 -6.985550 0.000000 
			CHANNELS 3 Zrotation Yrotation Xrotation
			JOINT RightFoot
			{
				OFFSET -2.568260 -7.056230 0.000000 
				CHANNELS 3 Zrotation Yrotation Xrotation
				JOINT RightToeBase
				{
					OFFSET -0.164730 -0.452590 2.363150 
					CHANNELS 3 Zrotation Yrotation Xrotation
					End Site
					{
						OFFSET 0.000000 0.000000 0.000000 
					}
				}
			}
		}
	}
	JOINT Spine
	{
		OFFSET 0.028270 2.035590 -0.193380 
		CHANNELS 3 Zrotation Yrotation Xrotation
		JOINT Spine1
		{
			OFFSET 0.056720 2.048850 -0.042750 
			CHANNELS 3 Zrotation Yrotation Xrotation
			JOINT Neck1
			{
				OFFSET -0.054170 1.746240 0.172020 
				CHANNELS 3 Zrotation Yrotation Xrotation
				JOINT Head
				{
					OFFSET 0.104070 1.761360 -0.123970 
					CHANNELS 3 Zrotation Yrotation Xrotation
					End Site
					{
						OFFSET 0.000000 0.000000 0.000000 
					}
				}
			}
			JOINT LeftArm
			{
				OFFSET 3.362410 1.200890 -0.311210 
				CHANNELS 3 Zrotation Yrotation Xrotation
				JOINT LeftForeArm
				{
					OFFSET 4.983000 -0.000000 -0.000000 
					CHANNELS 3 Zrotation Yrotation Xrotation
					JOINT LeftHand
					{
						OFFSET 3.483560 -0.000000 -0.000000 
						CHANNELS 3 Zrotation Yrotation Xrotation
						JOINT LeftHandIndex1
						{
							OFFSET 0.715260 -0.000000 -0.000000 
							CHANNELS 3 Zrotation Yrotation Xrotation
							End Site
							{
								OFFSET 0.000000 0.000000 0.000000 
							}
						}
					}
				}
			}
			JOINT RightArm
			{
				OFFSET -3.136600 1.374050 -0.404650 
				CHANNELS 3 Zrotation Yrotation Xrotation
				JOINT RightForeArm
				{
					OFFSET -5.241900 -0.000000 -0.000000 
					CHANNELS 3 Zrotation Yrotation Xrotation
					JOINT RightHand
					{
						OFFSET -3.444170 -0.000000 -0.000000 
						CHANNELS 3 Zrotation Yrotation Xrotation
						JOINT RightHandIndex1
						{
							OFFSET -0.622530 -0.000000 -0.000000 
							CHANNELS 3 Zrotation Yrotation Xrotation
							End Site
							{
								OFFSET 0.000000 0.000000 0.000000 
							}
						}
					}
				}
			}
		}
	}
}
MOTION
Frames: 7
Frame Time: 0.041667
-5.795054 17.680251 2.239696 66.073236 87.081252 75.150185 -41.875935 4.829147 8.612050 -3.731971 14.702726 44.716299 0.030258 20.114129 -16.857456 6.045500 -14.472300 -45.164100 35.339443 19.475495 -21.601125 12.690482 -9.167731 12.382848 -1.373630 -10.118622 -1.792814 -1.457400 7.630200 -21.596500 2.225142 -5.217430 -7.253411 4.710326 -1.052966 -23.405923 -1.885265 8.585994 20.272668 -3.225400 4.415700 15.350600 -82.467064 13.367945 56.038335 123.222363 -48.657156 -86.732528 -0.784217 0.901799 -3.136032 -7.125000 0.000000 0.000000 76.265693 -41.854552 44.662948 -28.275518 38.544744 -8.154887 0.112703 -3.408161 -14.550801 7.125000 0.000000 0.000000 
-5.079880 17.457001 2.263106 71.550429 86.939010 79.401414 -40.734527 5.571830 6.156305 -0.904325 16.472806 52.226441 0.809076 17.156442 -21.134907 5.359500 -13.777500 -42.353600 37.168488 16.924527 -18.266665 12.197184 -9.391517 14.370997 -0.756465 -5.283138 -6.526792 -1.374800 7.420100 -20.966000 2.118495 -4.967781 -7.082214 4.438891 -1.013887 -23.428450 -2.363283 8.467850 19.985861 -3.491600 4.320600 15.113200 -83.199770 14.637314 57.192090 122.203505 -48.960913 -85.480156 -0.815567 0.977735 -2.967024 -7.125000 0.000000 0.000000 75.959865 -40.821712 45.665683 -29.217874 39.514094 -8.545068 0.193357 -3.353643 -15.281854 7.125000 0.000000 0.000000 
-4.395204 17.184032 2.284475 74.739056 87.252145 81.187252 -39.337053 5.981601 3.814315 1.796153 17.748033 59.078903 1.891618 12.666373 -24.897263 4.385100 -12.655900 -38.093800 39.308554 14.938756 -14.895159 11.910185 -9.520206 16.128979 -0.653108 -3.163953 -10.054822 -0.322800 3.652000 -10.099600 2.084696 -4.522827 -6.900472 4.254735 -0.899169 -23.727934 -2.512171 8.431717 19.685596 -3.359100 4.153500 14.794800 -84.230501 15.974585 57.575412 120.145336 -49.591596 -83.214998 -0.857401 1.079014 -2.553076 -7.125000 0.000000 0.000000 75.706339 -39.257201 46.503172 -29.540346 39.977883 -8.703015 0.137400 -3.291019 -14.808808 7.125000 0.000000 0.000000 
-3.741131 16.895493 2.300368 74.031753 87.880634 78.927552 -37.858121 6.083378 1.261547 4.162779 18.640713 64.896837 2.861749 7.237007 -27.415625 3.798300 -11.887100 -35.333700 41.449866 14.383323 -13.144174 11.151040 -11.242351 21.041832 -0.739303 -0.321045 -14.219489 -0.254800 3.247600 -8.968800 2.104068 -3.823377 -6.670823 3.999923 -0.711624 -24.272386 -2.767621 8.298334 19.206863 -3.257200 3.915200 14.353300 -85.305110 17.130523 57.258149 116.975887 -50.519637 -79.797203 -0.924796 1.204801 -1.945410 -7.125000 0.000000 0.000000 75.695678 -36.939387 46.631084 -29.311866 40.042609 -8.644714 0.075068 -3.259702 -13.617281 7.125000 0.000000 0.000000 
-3.141502 16.680834 2.313039 -68.529735 86.209513 -63.514770 -30.671177 5.180701 -4.817011 6.597472 19.135058 69.727630 2.968474 2.429198 -26.858767 3.222100 -11.046100 -32.435600 49.095785 14.511199 -13.180892 10.584953 -13.869848 26.737835 -0.960993 3.676216 -18.843323 -0.215000 2.985000 -8.236900 2.749062 -1.683558 -6.601302 2.506036 -0.409188 -25.061142 -2.968084 8.126857 19.283055 -3.093900 3.659600 14.377700 -86.230999 18.443432 56.343428 113.368673 -51.521351 -75.942154 -1.006072 1.321686 -1.211498 -7.125000 0.000000 0.000000 75.617431 -34.366626 46.197359 -29.062499 40.133958 -8.615425 0.065350 -3.266717 -12.156264 7.125000 0.000000 0.000000 
-2.542839 16.630149 2.307348 -67.781352 83.629825 -61.000262 -27.676296 4.114840 -12.879709 8.631097 20.561449 74.330644 2.852052 0.652998 -25.790910 3.480000 -11.434200 -33.758800 51.416701 13.590227 -14.464076 9.903759 -15.222413 29.806623 -0.585713 7.373359 -19.232740 -0.284700 3.431500 -9.482400 3.117950 -0.151788 -6.752155 2.038788 0.056827 -25.118777 -3.262170 8.139646 19.453169 -3.024700 3.486600 14.592400 -87.458410 20.232240 54.243857 110.345916 -52.346110 -72.739647 -1.074280 1.434528 0.138360 -7.125000 0.000000 0.000000 74.803365 -31.649202 46.177048 -29.255759 40.525175 -8.819883 0.007078 -3.238521 -10.804418 7.125000 0.000000 0.000000 
-1.948472 16.634766 2.304878 -63.435647 83.051942 -56.300112 -27.028548 2.504471 -18.990827 10.220757 21.979876 78.288898 2.621728 0.140094 -24.384329 4.359100 -12.623600 -37.975200 51.775762 11.609504 -12.512084 9.723770 -14.786988 29.795150 -0.293027 9.257411 -18.956737 -0.335800 3.724200 -10.302000 3.242961 0.701309 -6.789973 2.190881 0.466936 -25.599722 -3.454968 8.073661 19.539294 -2.958200 3.322600 14.714300 -88.715889 22.775179 51.556859 108.112651 -52.930671 -70.473861 -1.089166 1.533068 2.433625 -7.125000 0.000000 0.000000 73.887227 -29.182753 45.967569 -30.366056 41.619528 -9.447358 0.027819 -3.197000 -10.385593 7.125000 0.000000 0.000000 
